<?xml version="1.0" encoding="utf-8"?>
<!-- Generator: Adobe Illustrator 16.0.0, SVG Export Plug-In . SVG Version: 6.00 Build 0)  -->
<!DOCTYPE svg PUBLIC "-//W3C//DTD SVG 1.1//EN" "http://www.w3.org/Graphics/SVG/1.1/DTD/svg11.dtd">
<svg version="1.1" xmlns="http://www.w3.org/2000/svg" xmlns:xlink="http://www.w3.org/1999/xlink" x="0px" y="0px"
	 width="475.076px" height="477.405px" viewBox="0 0 475.076 477.405" enable-background="new 0 0 475.076 477.405"
	 xml:space="preserve">
<g id="Guides_For_Artboard">
</g>
<g id="FONDO">
	<g>
		<rect x="-2926.496" y="40.419" fill="#555555" width="868.899" height="190.464"/>
	</g>
</g>
<g id="LOGO">
</g>
<g id="Layer_2">
	<path fill="#A0A0A0" d="M-2183.976,138.876h-31.271c-2.375-0.582-4.113-2.308-4.113-4.331c0-2.498,2.645-4.541,5.877-4.541h9.932
		c0.059,0,0.113-0.007,0.17-0.008h13.748c4.869,0,8.814-3.946,8.814-8.815c0-4.868-3.945-8.813-8.814-8.813h-13.918h-7.133h-43.01
		c-29.005-22.855-65.611-36.494-105.405-36.494c-1.716,0-406.106,0.083-406.106,0.083c-0.378-0.048-0.76-0.083-1.152-0.083h-21.188
		c-4.899,0-8.871,3.972-8.871,8.87c0,4.899,3.972,8.872,8.871,8.872h21.188c0.157,0,0.308-0.015,0.462-0.023h22.297
		c3.231,0,5.876,2.043,5.876,4.542s-2.645,4.542-5.876,4.542h-6.161c-0.035,0-0.07,0.004-0.105,0.005h-15.6
		c-4.899,0-8.87,3.971-8.87,8.872c0,4.898,3.971,8.871,8.87,8.871h6.361c-17.158,15.668-31.1,34.796-40.724,56.282h-26.382h-27.208
		h-1.041c-4.868,0-8.813,3.945-8.813,8.813c0,4.869,3.945,8.815,8.813,8.815h20.947c0.056,0.001-19.962,0.008-19.906,0.008h30.007
		c3.231,0,5.875,2.043,5.875,4.541c0,2.024-1.736,3.75-4.114,4.331h-18.393c-4.867,0-8.813,3.945-8.813,8.813
		s3.946,8.815,8.813,8.815h27.288c-1.246,8.311-1.724,10.041-1.724,10.041l625.843,0.002c0,0-4.177-57.875-25.59-74.381h30.25
		c4.867,0,8.812-3.946,8.812-8.814C-2175.164,142.821-2179.109,138.876-2183.976,138.876z"/>
	<path fill="#fff" d="M-2902.812,159.733c0.741-0.417,1.005-0.152,0.588,0.589l0.001,3.038c0.417,0.742,0.152,1.006-0.589,0.589
		h-3.039c-0.741,0.418-1.006,0.153-0.589-0.588v-3.04c-0.416-0.741-0.151-1.006,0.589-0.59L-2902.812,159.733z"/>
	<path opacity="0.5" fill="#fff" d="M-2875.895,168.465c0.818,0.229,0.818,0.604-0.001,0.832l-2.148,2.149
		c-0.229,0.818-0.604,0.818-0.833,0l-2.148-2.149c-0.818-0.229-0.818-0.604-0.001-0.832l2.149-2.15c0.229-0.818,0.604-0.818,0.833,0
		L-2875.895,168.465z"/>
	<path fill="#fff" d="M-2817.506,160.499c0.817,0.229,0.817,0.604-0.001,0.832l-2.149,2.149c-0.229,0.818-0.603,0.818-0.832,0
		l-2.149-2.149c-0.818-0.229-0.818-0.604-0.001-0.832l2.15-2.15c0.229-0.818,0.604-0.818,0.832,0L-2817.506,160.499z"/>
	<path fill="#fff" d="M-2959.363,137.46c0.818,0.229,0.818,0.604-0.001,0.832l-2.149,2.149c-0.229,0.818-0.603,0.818-0.833,0
		l-2.149-2.149c-0.818-0.229-0.818-0.603,0-0.832l2.149-2.15c0.229-0.818,0.604-0.818,0.833,0L-2959.363,137.46z"/>
	<path opacity="0.5" fill="#fff" d="M-2407.199,65.624c0.435,0.122,0.435,0.321,0,0.443l-1.144,1.143
		c-0.122,0.436-0.321,0.436-0.443,0l-1.144-1.143c-0.436-0.123-0.436-0.322-0.001-0.443l1.145-1.145
		c0.122-0.436,0.321-0.436,0.443,0L-2407.199,65.624z"/>
	<path opacity="0.5" fill="#fff" d="M-2444.283,87.894c0.435,0.122,0.435,0.321,0,0.443l-1.144,1.144
		c-0.122,0.436-0.321,0.436-0.443,0l-1.144-1.144c-0.436-0.122-0.436-0.321-0.001-0.443l1.145-1.144
		c0.122-0.436,0.321-0.436,0.443,0L-2444.283,87.894z"/>
	<path opacity="0.5" fill="#A0A0A0" d="M-2097.827,106.36c0.435,0.122,0.435,0.321,0,0.443l-1.144,1.144
		c-0.122,0.436-0.321,0.436-0.443,0l-1.144-1.144c-0.436-0.122-0.436-0.321-0.001-0.443l1.145-1.144
		c0.122-0.436,0.321-0.436,0.443,0L-2097.827,106.36z"/>
	<path opacity="0.5" fill="#fff" d="M-2560.609,73.008c0.435,0.122,0.435,0.321,0,0.443l-1.144,1.143
		c-0.122,0.436-0.321,0.436-0.443,0l-1.144-1.143c-0.436-0.123-0.436-0.322-0.001-0.443l1.145-1.145
		c0.122-0.436,0.321-0.436,0.443,0L-2560.609,73.008z"/>
	<path opacity="0.5" fill="#fff" d="M-2369.838,71.606c0.436,0.122,0.436,0.321,0,0.443l-1.144,1.143
		c-0.122,0.436-0.321,0.436-0.443,0l-1.144-1.143c-0.436-0.123-0.436-0.322-0.001-0.443l1.145-1.145
		c0.122-0.436,0.321-0.436,0.443,0L-2369.838,71.606z"/>
	<path opacity="0.5" fill="#fff" d="M-2859.979,151.359c0.436,0.122,0.436,0.321,0,0.443l-1.144,1.143
		c-0.122,0.436-0.321,0.436-0.442,0l-1.145-1.143c-0.436-0.123-0.436-0.322-0.001-0.443l1.146-1.145c0.121-0.436,0.32-0.436,0.442,0
		L-2859.979,151.359z"/>
	<path opacity="0.5" fill="#fff" d="M-2755.127,166.296c0.435,0.122,0.435,0.321,0,0.443l-1.144,1.143
		c-0.122,0.436-0.321,0.436-0.443,0l-1.144-1.143c-0.437-0.122-0.437-0.322-0.001-0.443l1.145-1.145
		c0.122-0.436,0.321-0.436,0.443,0L-2755.127,166.296z"/>
	<path opacity="0.5" fill="#fff" d="M-2411.111,126.762c0.436,0.122,0.436,0.321,0,0.443l-1.144,1.143
		c-0.122,0.436-0.321,0.436-0.442,0l-1.145-1.143c-0.436-0.123-0.436-0.322-0.001-0.443l1.146-1.145c0.121-0.436,0.32-0.436,0.442,0
		L-2411.111,126.762z"/>
	<path opacity="0.5" fill="#fff" d="M-2386.443,62.377c0.817,0.229,0.817,0.604-0.001,0.833l-2.149,2.149
		c-0.229,0.818-0.604,0.818-0.832,0l-2.148-2.149c-0.819-0.229-0.819-0.604-0.002-0.833l2.15-2.15c0.229-0.818,0.603-0.818,0.832,0
		L-2386.443,62.377z"/>
	<path opacity="0.5" fill="#B7B7B7" d="M-2389.622,111.806c0.817,0.229,0.817,0.604-0.001,0.833l-2.149,2.149
		c-0.229,0.818-0.604,0.818-0.832,0l-2.149-2.149c-0.818-0.229-0.818-0.603-0.001-0.833l2.15-2.149c0.229-0.819,0.603-0.819,0.832,0
		L-2389.622,111.806z"/>
	<path opacity="0.5" fill="#B7B7B7" d="M-2518.445,85.084c0.817,0.229,0.817,0.604-0.001,0.833l-2.149,2.149
		c-0.229,0.818-0.604,0.818-0.833,0l-2.148-2.149c-0.819-0.229-0.819-0.604-0.002-0.833l2.15-2.149c0.229-0.819,0.603-0.819,0.833,0
		L-2518.445,85.084z"/>
	<path fill="#A0A0A0" d="M-2850.546,133.63c0.378-1.353,0.998-1.353,1.377,0.001l3.555,3.555c1.354,0.38,1.354,1,0,1.377
		l-3.556,3.556c-0.379,1.355-0.999,1.355-1.377,0.002l-3.556-3.558c-1.354-0.378-1.355-0.998,0-1.378L-2850.546,133.63z"/>
	<path fill="#A0A0A0" d="M-2235.473,70.106c0.378-1.353,0.998-1.353,1.377,0.001l3.555,3.555c1.354,0.38,1.354,1,0,1.377
		l-3.556,3.556c-0.379,1.355-0.999,1.355-1.377,0.002l-3.556-3.558c-1.354-0.378-1.355-0.998,0-1.378L-2235.473,70.106z"/>
	<path opacity="0.5" fill="#B7B7B7" d="M-2320.161,166.63c0.817,0.229,0.817,0.604-0.001,0.833l-2.148,2.149
		c-0.229,0.818-0.604,0.818-0.833,0l-2.148-2.149c-0.819-0.229-0.819-0.604-0.002-0.833l2.15-2.15c0.229-0.819,0.604-0.819,0.833,0
		L-2320.161,166.63z"/>
	<path opacity="0.5" fill="#fff" d="M-2313.802,93.903c0.817,0.229,0.817,0.604-0.001,0.833l-2.148,2.149
		c-0.229,0.818-0.604,0.818-0.833,0l-2.148-2.149c-0.819-0.229-0.819-0.604-0.002-0.833l2.15-2.15c0.229-0.819,0.604-0.819,0.833,0
		L-2313.802,93.903z"/>
	<path opacity="0.5" fill="#B7B7B7" d="M-2416.782,92.161c0.817,0.229,0.817,0.604-0.001,0.833l-2.148,2.149
		c-0.229,0.818-0.604,0.818-0.833,0l-2.148-2.149c-0.819-0.229-0.819-0.604-0.002-0.833l2.15-2.149c0.229-0.819,0.604-0.819,0.833,0
		L-2416.782,92.161z"/>
	<path opacity="0.5" fill="#B7B7B7" d="M-2491.422,102.749c0.817,0.229,0.817,0.604-0.001,0.833l-2.148,2.149
		c-0.229,0.818-0.604,0.818-0.833,0l-2.149-2.149c-0.819-0.229-0.819-0.604-0.002-0.833l2.151-2.15c0.229-0.818,0.603-0.818,0.833,0
		L-2491.422,102.749z"/>
	<path opacity="0.5" fill="#B7B7B7" d="M-2345.745,88.207c0.817,0.229,0.817,0.604-0.001,0.833l-2.148,2.149
		c-0.229,0.818-0.604,0.818-0.833,0l-2.148-2.149c-0.819-0.229-0.819-0.604-0.002-0.833l2.15-2.15c0.229-0.818,0.604-0.818,0.833,0
		L-2345.745,88.207z"/>
	<path fill="#A0A0A0" d="M-2887.663,108.474c0.817,0.229,0.817,0.604-0.001,0.832l-2.148,2.149c-0.229,0.818-0.604,0.818-0.833,0
		l-2.148-2.149c-0.819-0.229-0.819-0.603-0.002-0.832l2.15-2.15c0.229-0.819,0.604-0.819,0.833,0L-2887.663,108.474z"/>
	<path fill="#A0A0A0" d="M-2551.303,56.019c0.817,0.229,0.817,0.604-0.001,0.832l-2.148,2.149c-0.229,0.818-0.604,0.818-0.833,0
		l-2.148-2.149c-0.819-0.229-0.819-0.603-0.002-0.832l2.15-2.15c0.229-0.819,0.604-0.819,0.833,0L-2551.303,56.019z"/>
	<path opacity="0.5" fill="#A0A0A0" d="M-2115.455,121.349c0.817,0.229,0.817,0.604-0.001,0.833l-2.149,2.149
		c-0.229,0.818-0.604,0.818-0.833,0l-2.149-2.149c-0.819-0.229-0.819-0.604-0.001-0.833l2.15-2.15c0.229-0.818,0.603-0.818,0.833,0
		L-2115.455,121.349z"/>
	<path opacity="0.5" fill="#B7B7B7" d="M-2154.174,190.504c0.618,0.173,0.618,0.456,0,0.629l-1.624,1.624
		c-0.174,0.619-0.457,0.619-0.629,0l-1.624-1.624c-0.619-0.173-0.619-0.456-0.001-0.629l1.625-1.625
		c0.173-0.619,0.456-0.619,0.629,0L-2154.174,190.504z"/>
	<path fill="#fff" d="M-2684.119,157.2c-0.74,0.417-1.005,0.152-0.588-0.589l-0.001-3.038c-0.416-0.742-0.151-1.007,0.59-0.59
		h3.039c0.741-0.418,1.006-0.152,0.589,0.588v3.04c0.416,0.741,0.151,1.006-0.589,0.59L-2684.119,157.2z"/>
	<path fill="#fff" d="M-2768.245,164.077c-0.817-0.229-0.817-0.604,0.001-0.832l2.149-2.148c0.229-0.818,0.603-0.818,0.832,0
		l2.149,2.148c0.818,0.229,0.818,0.604,0.001,0.832l-2.15,2.15c-0.229,0.818-0.604,0.818-0.832,0L-2768.245,164.077z"/>
	<path fill="#fff" d="M-2627.567,179.473c-0.818-0.229-0.818-0.604,0.001-0.832l2.148-2.149c0.229-0.818,0.604-0.818,0.833,0
		l2.148,2.149c0.818,0.229,0.818,0.603,0.001,0.832l-2.149,2.149c-0.229,0.818-0.604,0.818-0.833,0L-2627.567,179.473z"/>
	<path opacity="0.5" fill="#fff" d="M-2693.779,112.135c-0.435-0.122-0.435-0.321,0-0.443l1.145-1.144
		c0.121-0.436,0.32-0.436,0.442,0l1.144,1.144c0.437,0.122,0.437,0.321,0.001,0.443l-1.145,1.145c-0.122,0.436-0.321,0.436-0.442,0
		L-2693.779,112.135z"/>
	<path opacity="0.5" fill="#fff" d="M-2616.638,155.82c-0.436-0.122-0.436-0.321,0-0.443l1.144-1.144
		c0.122-0.436,0.321-0.436,0.443,0l1.144,1.144c0.436,0.122,0.436,0.321,0.001,0.443l-1.145,1.145c-0.122,0.436-0.321,0.436-0.443,0
		L-2616.638,155.82z"/>
	<path opacity="0.5" fill="#fff" d="M-2577.453,127.021c-0.436-0.122-0.436-0.321,0-0.443l1.144-1.143
		c0.122-0.436,0.321-0.436,0.443,0l1.144,1.143c0.436,0.123,0.436,0.322,0.001,0.443l-1.145,1.145c-0.122,0.436-0.321,0.436-0.443,0
		L-2577.453,127.021z"/>
	<path opacity="0.5" fill="#fff" d="M-2768.224,128.423c-0.436-0.122-0.436-0.321,0-0.443l1.144-1.144
		c0.122-0.436,0.321-0.436,0.443,0l1.144,1.144c0.436,0.122,0.436,0.321,0.001,0.443l-1.145,1.145c-0.122,0.436-0.321,0.436-0.443,0
		L-2768.224,128.423z"/>
	<path opacity="0.5" fill="#fff" d="M-2831.804,150.637c-0.435-0.122-0.435-0.321,0-0.443l1.144-1.143
		c0.122-0.436,0.321-0.436,0.443,0l1.144,1.143c0.437,0.122,0.437,0.322,0.001,0.443l-1.145,1.145c-0.122,0.436-0.321,0.436-0.443,0
		L-2831.804,150.637z"/>
	<path opacity="0.5" fill="#fff" d="M-2726.951,73.267c-0.436-0.122-0.436-0.321,0-0.443l1.144-1.144
		c0.122-0.436,0.321-0.436,0.442,0l1.145,1.144c0.436,0.122,0.436,0.321,0.001,0.443l-1.146,1.145c-0.121,0.436-0.32,0.436-0.442,0
		L-2726.951,73.267z"/>
	<path opacity="0.5" fill="#fff" d="M-2738.28,133.234c-0.817-0.229-0.817-0.604,0.001-0.832l2.149-2.149
		c0.229-0.818,0.604-0.818,0.832,0l2.148,2.149c0.819,0.229,0.819,0.604,0.002,0.832l-2.15,2.15c-0.229,0.818-0.603,0.818-0.832,0
		L-2738.28,133.234z"/>
	<path opacity="0.5" fill="#B7B7B7" d="M-2692.487,103.857c-0.817-0.229-0.817-0.604,0.001-0.832l2.149-2.149
		c0.229-0.818,0.604-0.818,0.832,0l2.149,2.149c0.818,0.229,0.818,0.603,0.001,0.832l-2.15,2.149c-0.229,0.819-0.603,0.819-0.832,0
		L-2692.487,103.857z"/>
	<path opacity="0.5" fill="#B7B7B7" d="M-2602.003,133.417c-0.817-0.229-0.817-0.604,0.001-0.832l2.149-2.149
		c0.229-0.818,0.604-0.818,0.832,0l2.148,2.149c0.819,0.229,0.819,0.604,0.002,0.832l-2.15,2.149c-0.229,0.819-0.603,0.819-0.832,0
		L-2602.003,133.417z"/>
	<path opacity="0.5" fill="#B7B7B7" d="M-2836.095,82.737c-0.817-0.229-0.817-0.604,0.001-0.833l2.148-2.148
		c0.229-0.818,0.604-0.818,0.833,0l2.148,2.148c0.819,0.229,0.819,0.604,0.002,0.833l-2.15,2.149c-0.229,0.819-0.604,0.819-0.833,0
		L-2836.095,82.737z"/>
	<path opacity="0.5" fill="#A0A0A0" d="M-2824.261,106.125c-0.817-0.229-0.817-0.604,0.001-0.833l2.148-2.149
		c0.229-0.818,0.604-0.818,0.833,0l2.148,2.149c0.819,0.229,0.819,0.604,0.002,0.833l-2.15,2.15c-0.229,0.819-0.604,0.819-0.833,0
		L-2824.261,106.125z"/>
	<path opacity="0.5" fill="#A0A0A0" d="M-2884.206,60.029c-0.817-0.229-0.817-0.604,0.001-0.833l2.148-2.149
		c0.229-0.818,0.604-0.818,0.833,0l2.148,2.149c0.819,0.229,0.819,0.604,0.002,0.833l-2.15,2.15c-0.229,0.819-0.604,0.819-0.833,0
		L-2884.206,60.029z"/>
	<path opacity="0.5" fill="#A0A0A0" d="M-2156.277,56.849c-0.817-0.229-0.817-0.604,0.001-0.833l2.148-2.149
		c0.229-0.818,0.604-0.818,0.833,0l2.148,2.149c0.819,0.229,0.819,0.604,0.002,0.833l-2.15,2.15c-0.229,0.819-0.604,0.819-0.833,0
		L-2156.277,56.849z"/>
	<path opacity="0.5" fill="#B7B7B7" d="M-2647.901,88.531c-0.817-0.229-0.817-0.604,0.001-0.832l2.148-2.149
		c0.229-0.818,0.604-0.818,0.833,0l2.148,2.149c0.819,0.229,0.819,0.604,0.002,0.832l-2.15,2.149c-0.229,0.819-0.604,0.819-0.833,0
		L-2647.901,88.531z"/>
	<path opacity="0.5" fill="#B7B7B7" d="M-2280.77,145.768c-0.817-0.229-0.817-0.604,0.001-0.833l2.148-2.148
		c0.229-0.818,0.604-0.818,0.833,0l2.148,2.148c0.819,0.229,0.819,0.604,0.002,0.833l-2.15,2.149c-0.229,0.818-0.604,0.818-0.833,0
		L-2280.77,145.768z"/>
	<path opacity="0.5" fill="#B7B7B7" d="M-2720.142,86.838c-0.817-0.229-0.817-0.604,0.001-0.833l2.148-2.148
		c0.229-0.818,0.604-0.818,0.833,0l2.148,2.148c0.819,0.229,0.819,0.604,0.002,0.833l-2.15,2.149c-0.229,0.818-0.604,0.818-0.833,0
		L-2720.142,86.838z"/>
	<path fill="#fff" d="M-2564.541,107.924c-0.817-0.229-0.817-0.604,0.001-0.832l2.148-2.149c0.229-0.818,0.604-0.818,0.833,0
		l2.148,2.149c0.819,0.229,0.819,0.603,0.002,0.832l-2.15,2.15c-0.229,0.819-0.604,0.819-0.833,0L-2564.541,107.924z"/>
	<path opacity="0.5" fill="#fff" d="M-2566.233,122.702c-0.817-0.229-0.817-0.604,0.001-0.833l2.148-2.148
		c0.229-0.818,0.604-0.818,0.833,0l2.148,2.149c0.819,0.229,0.819,0.604,0.002,0.833l-2.15,2.15c-0.229,0.818-0.604,0.818-0.833,0
		L-2566.233,122.702z"/>
	<path opacity="0.5" fill="#B7B7B7" d="M-2112.017,174.164c-0.618-0.173-0.618-0.456,0-0.629l1.625-1.625
		c0.173-0.619,0.456-0.619,0.629,0l1.624,1.625c0.62,0.173,0.62,0.456,0.002,0.629l-1.626,1.625c-0.173,0.619-0.456,0.619-0.629,0
		L-2112.017,174.164z"/>
	<path fill="#FDF9CE" d="M-2286.947-8.89h-0.947c-4.849,0-8.778,3.931-8.778,8.779c0,4.85,3.93,8.78,8.778,8.78h0.947
		c4.848,0,8.779-3.931,8.779-8.78C-2278.168-4.959-2282.1-8.89-2286.947-8.89z"/>
	<path fill="#FDF9CE" d="M-2678.576-62.983h-0.947c-4.849,0-8.778,3.931-8.778,8.779c0,4.85,3.93,8.78,8.778,8.78h0.947
		c4.848,0,8.779-3.931,8.779-8.78C-2669.796-59.053-2673.728-62.983-2678.576-62.983z"/>
	<path fill="#A0A0A0" d="M-2792.782,103.442h-0.947c-4.849,0-8.779,3.931-8.779,8.78c0,4.85,3.93,8.78,8.779,8.78h0.947
		c4.848,0,8.779-3.93,8.779-8.78C-2784.003,107.373-2787.934,103.442-2792.782,103.442z"/>
	<path fill="#A0A0A0" d="M-2157.863,139.201h-0.947c-4.849,0-8.779,3.931-8.779,8.78c0,4.85,3.93,8.78,8.779,8.78h0.947
		c4.848,0,8.779-3.93,8.779-8.78C-2149.084,143.132-2153.015,139.201-2157.863,139.201z"/>
	<path fill="#B7B7B7" d="M-2281.522,133.671c1.833,0,3.318-1.486,3.318-3.319c0-1.833-1.485-3.318-3.318-3.318h-15.393V114.78
		h15.393c1.833,0,3.318-1.486,3.318-3.319c0-1.833-1.485-3.319-3.318-3.319h-15.393V92.902c3.368-1.523,5.717-4.905,5.717-8.843
		c0-5.361-4.347-9.708-9.708-9.708s-9.708,4.346-9.708,9.708c0,3.938,2.349,7.32,5.718,8.843v15.241h-15.241
		c-1.833,0-3.318,1.486-3.318,3.319c0,1.833,1.485,3.319,3.318,3.319h15.241v12.254h-15.241c-1.833,0-3.318,1.486-3.318,3.318
		c0,1.833,1.485,3.319,3.318,3.319h15.241v7.873c-0.003,56.197-17.928,94.77-17.928,94.77h43.819c0,0-17.313-37.259-17.91-91.89
		v-10.752H-2281.522z"/>
	<path fill="#EAEAEA" d="M-2783.462,204.163h47.322c5.548,0,10.046,4.498,10.046,10.046l0,0c0,5.548-4.498,10.046-10.046,10.046
		h-47.322c-5.548,0-10.046-4.498-10.046-10.046l0,0C-2793.508,208.661-2789.01,204.163-2783.462,204.163z"/>
	<polygon fill="#B7B7B7" points="-2491.615,292.53 -2445.87,292.53 -2445.87,96.785 -2545.969,96.785 -2545.969,184.463 
		-2493.526,184.514 	"/>
	<g>
		<rect x="-2530.004" y="102.961" fill="#FDF9CE" width="5.203" height="81.502"/>
		<rect x="-2538.996" y="102.961" fill="#FDF9CE" width="5.202" height="81.502"/>
		<rect x="-2521.011" y="102.961" fill="#FDF9CE" width="5.202" height="81.502"/>
		<rect x="-2512.019" y="102.961" fill="#FDF9CE" width="5.202" height="81.502"/>
		<rect x="-2503.027" y="102.961" fill="#FDF9CE" width="5.202" height="81.502"/>
		<polygon fill="#FDF9CE" points="-2488.832,205.429 -2494.034,202.986 -2494.034,102.961 -2488.832,102.961 		"/>
		<polygon fill="#FDF9CE" points="-2479.84,209.837 -2485.042,207.357 -2485.042,102.961 -2479.84,102.961 		"/>
		<rect x="-2476.05" y="102.961" fill="#FDF9CE" width="5.203" height="45.391"/>
		<rect x="-2467.057" y="102.961" fill="#FDF9CE" width="5.202" height="45.391"/>
		<rect x="-2458.065" y="102.961" fill="#FDF9CE" width="5.202" height="45.391"/>
	</g>
	<rect x="-2585.14" y="183.886" fill="#B7B7B7" width="91.105" height="51.54"/>
	<rect x="-2677.934" y="161.803" fill="#DCDBDB" width="93.183" height="73.083"/>
	<rect x="-2611.87" y="143.236" fill="#DCDBDB" width="58.001" height="87.503"/>
	<rect x="-2400.565" y="212.043" fill="#B7B7B7" width="129.721" height="18.696"/>
	<rect x="-2662.479" y="107.509" fill="#DCDBDB" width="40.648" height="127.916"/>
	<g>
		<rect x="-2673.499" y="116.937" fill="#A0A0A0" width="35.346" height="5.35"/>
		<rect x="-2673.499" y="126.951" fill="#A0A0A0" width="35.346" height="5.35"/>
		<rect x="-2673.499" y="136.966" fill="#A0A0A0" width="35.346" height="5.35"/>
		<rect x="-2673.499" y="146.98" fill="#A0A0A0" width="35.346" height="5.349"/>
		<rect x="-2673.499" y="156.995" fill="#A0A0A0" width="35.346" height="5.35"/>
		<rect x="-2673.499" y="167.009" fill="#A0A0A0" width="35.346" height="5.35"/>
	</g>
	<g>
		<g>
			<path fill="#CFCECE" d="M-2586.142,108.171c-2.724-7.334-1.889-14.803,1.63-19.186c0.692-0.862-0.327-1.434-1.245-1.14
				c-9.42,3.845-14.149,14.505-10.581,24.112c3.563,9.592,14.075,14.58,23.709,11.376c1.495-0.458,1.065-1.503-0.155-1.773
				C-2578.173,120.371-2583.483,115.328-2586.142,108.171z"/>
		</g>
	</g>
	<g>
		<g>
			<path fill="#fff" d="M-2505.3-45.705c0-10.639,4.601-19.765,11.162-23.687c1.291-0.771,0.263-1.983-1.046-2.043
				c-13.83,0.442-24.905,11.792-24.905,25.729c0,13.915,11.04,25.25,24.838,25.728c2.124,0.124,2.07-1.413,0.643-2.333
				C-2500.918-26.379-2505.3-35.322-2505.3-45.705z"/>
		</g>
	</g>
	<path fill="#EAEAEA" d="M-2740.198,189.264c0,5.574-4.517,10.092-10.09,10.092h-42.129c-5.573,0-10.09-4.518-10.09-10.092l0,0
		c0-5.573,4.517-10.09,10.09-10.09h42.129C-2744.715,179.174-2740.198,183.691-2740.198,189.264L-2740.198,189.264z"/>
	<path fill="#F9F9FA" d="M-2826.776,433.082c0,5.406,1.405,9.789-4,9.789h-4.672c-5.405,0-9.787-4.383-9.787-9.789l0,0
		c0-5.408,4.382-9.789,9.787-9.789h4.672C-2825.371,423.292-2826.776,427.673-2826.776,433.082L-2826.776,433.082z"/>
	<path fill="#F9F9FA" d="M-2853.884,432.732c0,5.406-4.382,9.787-9.787,9.787h-4.672c-5.405,0-9.788-4.381-9.788-9.787l0,0
		c0-5.408,4.382-9.789,9.788-9.789h4.672C-2858.266,422.943-2853.884,427.324-2853.884,432.732L-2853.884,432.732z"/>
	<rect x="-2590.738" y="-57.845" opacity="0.5" fill="#F9F9FA" width="3.42" height="7.282"/>
	<g>
		<rect x="-2603.765" y="155.59" fill="#FDF9CE" width="41.79" height="5.324"/>
		<rect x="-2603.765" y="165.558" fill="#FDF9CE" width="41.79" height="5.324"/>
		<rect x="-2603.765" y="175.525" fill="#FDF9CE" width="41.79" height="5.324"/>
		<rect x="-2603.765" y="185.493" fill="#FDF9CE" width="41.79" height="5.324"/>
		<rect x="-2603.765" y="195.461" fill="#FDF9CE" width="41.79" height="5.324"/>
		<rect x="-2603.765" y="205.429" fill="#FDF9CE" width="41.79" height="5.324"/>
	</g>
	<rect x="-2446.673" y="141.352" fill="#EAEAEA" width="80.223" height="89.922"/>
	<rect x="-2438.028" y="148.59" fill="#FDF9CE" width="62.695" height="5.324"/>
	<rect x="-2438.028" y="158.558" fill="#FDF9CE" width="62.695" height="5.324"/>
	<rect x="-2438.028" y="168.525" fill="#FDF9CE" width="57.027" height="5.324"/>
	<rect x="-2438.028" y="178.493" fill="#FDF9CE" width="59.002" height="5.324"/>
	<rect x="-2438.028" y="188.461" fill="#FDF9CE" width="59.002" height="5.324"/>
	<rect x="-2438.028" y="198.429" fill="#FDF9CE" width="59.002" height="5.324"/>
	<polygon fill="#FDF9CE" points="-2379.026,213.721 -2424.312,213.721 -2435.351,208.396 -2379.026,208.396 	"/>
	<rect x="-2501.374" y="121.696" fill="#DCDBDB" width="80.223" height="144.179"/>
	<rect x="-2492.729" y="128.934" fill="#CFCECE" width="62.695" height="5.324"/>
	<rect x="-2492.729" y="138.902" fill="#CFCECE" width="62.695" height="5.324"/>
	<rect x="-2492.729" y="148.87" fill="#CFCECE" width="57.027" height="5.324"/>
	<rect x="-2492.729" y="158.837" fill="#CFCECE" width="59.002" height="5.324"/>
	<rect x="-2492.729" y="168.805" fill="#CFCECE" width="59.002" height="5.324"/>
	<rect x="-2492.729" y="178.773" fill="#CFCECE" width="59.002" height="5.324"/>
	<polygon fill="#CFCECE" points="-2433.727,194.065 -2479.012,194.065 -2490.051,188.741 -2433.727,188.741 	"/>
	<polygon fill="#CFCECE" points="-2433.549,204.033 -2458.17,204.033 -2469.333,198.708 -2433.549,198.708 	"/>
	<rect x="-2458.17" y="208.676" fill="#CFCECE" width="24.621" height="5.324"/>
	<rect x="-2458.17" y="218.644" fill="#CFCECE" width="24.621" height="5.324"/>
	<rect x="-2458.17" y="228.612" fill="#CFCECE" width="24.621" height="5.324"/>
	<path fill="#CFCECE" d="M-2717.473,148.468c-0.818-0.229-0.818-0.604,0.001-0.832l2.148-2.149c0.229-0.818,0.604-0.818,0.833,0
		l2.148,2.149c0.818,0.229,0.818,0.604,0.001,0.832l-2.149,2.149c-0.229,0.818-0.604,0.818-0.833,0L-2717.473,148.468z"/>
	<path opacity="0.5" fill="#fff" d="M-2731.696,124.523c-0.435-0.122-0.435-0.321,0-0.443l1.144-1.144
		c0.122-0.436,0.321-0.436,0.443,0l1.144,1.144c0.436,0.122,0.436,0.321,0.001,0.443l-1.145,1.145c-0.122,0.436-0.321,0.436-0.443,0
		L-2731.696,124.523z"/>
	<path fill="#CFCECE" d="M-2733.388,165.575c-0.436-0.122-0.436-0.321,0-0.443l1.144-1.144c0.122-0.436,0.321-0.436,0.442,0
		l1.145,1.144c0.436,0.122,0.436,0.321,0.001,0.443l-1.146,1.145c-0.121,0.436-0.32,0.436-0.442,0L-2733.388,165.575z"/>
	<path fill="#CFCECE" d="M-2716.02,179.366c-1.224,0.689-1.662,0.251-0.973-0.974v-5.028c-0.688-1.226-0.251-1.664,0.974-0.974
		h5.028c1.227-0.69,1.664-0.252,0.976,0.972l-0.001,5.03c0.69,1.226,0.253,1.664-0.975,0.975L-2716.02,179.366z"/>
	<rect x="-2776.355" y="145.352" fill="#EAEAEA" width="70.782" height="92.584"/>
	<rect x="-2768.728" y="151.738" fill="#CFCECE" width="55.317" height="4.697"/>
	<rect x="-2768.728" y="160.533" fill="#CFCECE" width="55.317" height="4.697"/>
	<rect x="-2768.728" y="169.327" fill="#CFCECE" width="47.172" height="4.698"/>
	<rect x="-2768.728" y="178.122" fill="#CFCECE" width="52.058" height="4.698"/>
	<rect x="-2768.728" y="186.917" fill="#CFCECE" width="52.058" height="4.698"/>
	<rect x="-2768.728" y="195.711" fill="#CFCECE" width="52.058" height="4.698"/>
	<rect x="-2768.728" y="203.961" fill="#CFCECE" width="52.058" height="4.698"/>
	<rect x="-2768.728" y="212.755" fill="#CFCECE" width="52.058" height="4.697"/>
	<rect x="-2768.728" y="221.55" fill="#CFCECE" width="52.058" height="4.697"/>
	<path fill="#fff" d="M-2148.132,96.411c0.818,0.229,0.818,0.604-0.001,0.833l-2.147,2.148c-0.229,0.819-0.604,0.819-0.833,0
		l-2.149-2.148c-0.819-0.229-0.819-0.604-0.001-0.833l2.15-2.15c0.229-0.818,0.604-0.818,0.833,0L-2148.132,96.411z"/>
	<path fill="#fff" d="M-2680.032,62.377c0.818,0.229,0.818,0.604-0.001,0.833l-2.147,2.148c-0.229,0.819-0.604,0.819-0.833,0
		l-2.149-2.148c-0.819-0.229-0.819-0.604-0.001-0.833l2.15-2.15c0.229-0.818,0.604-0.818,0.833,0L-2680.032,62.377z"/>
	<path fill="#fff" d="M-2465.435,62.377c0.818,0.229,0.818,0.604-0.001,0.833l-2.147,2.148c-0.229,0.819-0.604,0.819-0.833,0
		l-2.149-2.148c-0.819-0.229-0.819-0.604-0.001-0.833l2.15-2.15c0.229-0.818,0.604-0.818,0.833,0L-2465.435,62.377z"/>
	<path fill="#fff" d="M-2363.884,52.838c0.818,0.229,0.818,0.604-0.001,0.833l-2.147,2.148c-0.229,0.819-0.604,0.819-0.833,0
		l-2.149-2.148c-0.819-0.229-0.819-0.604-0.001-0.833l2.15-2.15c0.229-0.818,0.604-0.818,0.833,0L-2363.884,52.838z"/>
	<path opacity="0.5" fill="#fff" d="M-2585.97,6.339c0.435,0.122,0.435,0.321,0,0.443l-1.145,1.144
		c-0.121,0.436-0.32,0.436-0.442,0l-1.145-1.144c-0.436-0.122-0.436-0.321,0-0.443l1.145-1.144c0.122-0.436,0.321-0.436,0.442,0
		L-2585.97,6.339z"/>
	<path opacity="0.5" fill="#fff" d="M-2705.759,24.817c0.435,0.122,0.435,0.321,0,0.443l-1.145,1.144
		c-0.121,0.436-0.32,0.436-0.442,0l-1.145-1.144c-0.436-0.122-0.436-0.321,0-0.443l1.145-1.144c0.122-0.436,0.321-0.436,0.442,0
		L-2705.759,24.817z"/>
	<path opacity="0.5" fill="#B7B7B7" d="M-2458.884,99.387c0.817,0.229,0.817,0.604,0,0.833l-2.149,2.148
		c-0.229,0.818-0.604,0.818-0.833,0l-2.149-2.148c-0.819-0.229-0.819-0.604-0.002-0.833l2.151-2.15c0.229-0.819,0.603-0.819,0.833,0
		L-2458.884,99.387z"/>
	<rect x="-2485.042" y="83.306" fill="#B7B7B7" width="32.179" height="13.479"/>
	<rect x="-2612.145" y="-67.725" fill="#DCDBDB" width="80.223" height="34.324"/>
	<rect x="-2657.936" y="-60.943" fill="#B7B7B7" width="32.179" height="13.479"/>
	<path fill="none" d="M-2360.298-24.932c8.822,2.783,18.882,16.58,7.538,22.738c-11.345,6.159-17.553,10.991-15.198,26.905"/>
	<path fill="#A0A0A0" d="M-2239.632,108.302"/>
	<g>
		<path fill="#FDF9CE" d="M-2481.056,464.934c0,0-2.786,0.513-3.779-1.689c-0.994-2.203-0.867-3.408-2.148-4.339
			s-1.877-2.185-0.871-2.64c1.007-0.454,1.562,0.955,2.167,0.496s-2.238-2.442-1.27-3.161c0.968-0.718,1.843,1.054,2.69,0.496
			c0.847-0.559-1.405-2.579-0.392-3.177c1.014-0.598,1.606,1.343,2.612,1.123c1.006-0.221-0.392-1.916,0.735-2.271
			c1.127-0.356,1.277,1.774,1.679,1.736c0.402-0.038,0.163-2.051,1.351-1.763c1.188,0.288,0.257,2.755,1.098,2.89
			s0.796-1.473,1.605-1.348c0.809,0.125-0.467,2.328,0.406,2.453c0.873,0.125,0.918-0.879,1.721-0.754
			c0.803,0.124,0.883,6.916,0.883,6.916L-2481.056,464.934"/>
		<g>
			<g>
				<path fill="#F9F9FA" d="M-2462.463,503.152c-1.502,0-3.02-0.438-4.354-1.351c-3.516-2.408-4.414-7.211-2.005-10.727
					l18.832-27.492c2.407-3.516,7.209-4.414,10.726-2.006c3.515,2.408,4.414,7.211,2.005,10.727l-18.831,27.492
					C-2457.585,501.978-2460.004,503.152-2462.463,503.152z"/>
			</g>
			<path fill="#EF4123" d="M-2471.267,461.886c0,0,15.346-3.668,21.288,3.101c5.858,6.672-1.382,14.758-1.382,14.758l-22.471-7.528
				L-2471.267,461.886z"/>
			<g>
				<path fill="#E83E34" d="M-2482.436,476.341c-2.896,0-6.033-0.767-9.218-2.778c-1.351-0.854-1.755-2.64-0.901-3.991
					c0.854-1.351,2.64-1.755,3.992-0.901c7.874,4.973,14.537-1.449,14.816-1.726c1.133-1.116,2.963-1.114,4.087,0.014
					c1.124,1.128,1.129,2.946,0.007,4.075C-2471.955,473.351-2476.722,476.341-2482.436,476.341z"/>
			</g>
			<g>
				<path fill="#E83E34" d="M-2465.768,465.35l-4.143-4.04l-0.068,0.073c0.052-0.062,1.276-1.559,1.294-5.236
					c0.027-5.254-3.84-7.748-4.005-7.852c-1.343-0.845-1.767-2.622-0.935-3.974s2.585-1.788,3.943-0.97
					c0.279,0.168,6.827,4.209,6.784,12.824C-2462.928,462.262-2465.478,465.051-2465.768,465.35z"/>
			</g>
			<g>
				<g>
					<path fill="#E83E34" d="M-2451.11,484.696c-0.258,0-0.521-0.035-0.782-0.109l-13.996-3.921
						c-1.539-0.431-2.437-2.028-2.005-3.567c0.432-1.538,2.027-2.434,3.567-2.005l13.996,3.921c1.539,0.432,2.437,2.028,2.005,3.567
						C-2448.683,483.86-2449.845,484.696-2451.11,484.696z"/>
				</g>
			</g>
			<g>
				<g>
					<path fill="#E83E34" d="M-2459.979,487.881c-0.282,0-0.569-0.041-0.852-0.129l-12.137-3.736
						c-1.133-0.35-1.939-1.355-2.033-2.537c-0.093-1.183,0.544-2.303,1.609-2.825l6.609-3.245l-6.966-2.031
						c-1.534-0.447-2.415-2.053-1.968-3.588c0.448-1.533,2.054-2.416,3.588-1.967l14.126,4.118c1.146,0.334,1.97,1.339,2.073,2.528
						s-0.536,2.32-1.607,2.846l-6.755,3.317l5.163,1.59c1.527,0.471,2.384,2.09,1.914,3.616
						C-2457.597,487.083-2458.742,487.881-2459.979,487.881z"/>
				</g>
				<polyline fill="#F7941E" points="-2456.976,482.833 -2465.812,480.076 -2469.876,485 -2459.754,488.209 -2457.327,482.948 				
					"/>
				<polyline fill="#F7941E" points="-2449.768,479.239 -2459.699,476.359 -2464.007,480.756 -2451.715,485.03 -2449.768,479.239 
									"/>
				<path fill="#EF4123" d="M-2446.301,481.311l-4.709,6.879c-0.434,0.635-1.427,0.342-1.446-0.428l-0.209-8.191
					c-0.013-0.528,0.486-0.922,0.997-0.785l4.917,1.311C-2446.222,480.238-2445.992,480.859-2446.301,481.311z"/>
				<path fill="#EF4123" d="M-2455.357,484.304l-5.41,7.615c-0.25,0.366-0.823,0.175-0.804-0.268l0.39-9.343
					c0.012-0.28,0.278-0.479,0.549-0.409l5.021,1.728C-2455.315,483.704-2455.184,484.051-2455.357,484.304z"/>
			</g>
			<path fill="#F7941E" d="M-2472.434,456.932c1.046,0.414,0.587,1.66,0.143,2.477l-2.553-1.357
				C-2474.336,457.381-2473.454,456.53-2472.434,456.932z"/>
			<path fill="#F7941E" d="M-2473.76,468.768c2.871,0.377,4.6-2.211,4.606-4.733c0.01-4.317-3.828-6.041-7.84-7.509
				c-4.012-1.467-9.126,5.1-4.062,8.408C-2477.611,467.184-2476.63,468.389-2473.76,468.768z"/>
			<path fill="#FDF9CE" d="M-2483.169,461.267c0,0,1.089,1.698,2.129,0.618c1.041-1.081-1.196-3.655,0.397-4.784
				c1.592-1.13-0.568-3.109-0.568-3.109l-3.561,4.805L-2483.169,461.267"/>
			<polygon opacity="0.5" fill="#A0A0A0" points="-2471.797,459.038 -2478.003,467.056 -2481.056,464.934 -2475.085,457.291 			"/>
			<polygon opacity="0.5" fill="#A0A0A0" points="-2476.892,459.604 -2476.06,464.567 -2477.579,466.514 -2478.411,461.547 			"/>
			<path fill="#EF4123" d="M-2475.39,466.391l-0.909,1.273c-0.115,0.162-0.361,0.145-0.453-0.031l-1.578-3.02
				c-0.129-0.248,0.161-0.503,0.39-0.342l2.487,1.745C-2475.333,466.102-2475.304,466.27-2475.39,466.391z"/>
		</g>
	</g>
	<rect x="-2400.203" y="186.327" fill="#fff" width="170.855" height="44.947"/>
	<rect x="-2734.243" y="201.497" fill="#fff" width="135.483" height="33.059"/>
	<rect x="-2590.012" y="217.481" fill="#fff" width="126.785" height="17.075"/>
	<g>
		<rect x="-2359.866" y="119.401" fill="#fff" width="23.11" height="113.337"/>
		<rect x="-2365.477" y="118.39" fill="#fff" width="34.52" height="14.611"/>
	</g>
	<path fill="#A0A0A0" d="M-2211.276,230.739h46.141c4.637,0,8.396-3.759,8.396-8.396s-3.759-8.395-8.396-8.395h-14.763
		c-0.034-0.001-0.067-0.005-0.101-0.005h-5.83c-3.059,0-5.562-1.935-5.562-4.299c0-2.364,2.503-4.298,5.562-4.298h21.103
		c0.146,0.007,0.289,0.022,0.437,0.022h20.052c4.637,0,8.395-3.759,8.395-8.396c0-4.637-3.757-8.395-8.395-8.395h-20.052
		c-0.371,0-0.733,0.032-1.09,0.078h-53.105l6.897,42.072C-2211.483,230.73-2211.38,230.739-2211.276,230.739z"/>
	<path fill="#DCDBDB" d="M-2229.071,183.187c0,5.574-4.517,10.092-10.09,10.092h-42.13c-5.572,0-10.09-4.518-10.09-10.092l0,0
		c0-5.573,4.518-10.09,10.09-10.09h42.13C-2233.588,173.096-2229.071,177.614-2229.071,183.187L-2229.071,183.187z"/>
	<g>
		<polygon fill="#fff" points="-2533.454,173.01 -2462.638,206.778 -2462.774,278.889 -2533.454,278.889 		"/>
		<rect x="-2499.331" y="221.836" fill="#B7B7B7" width="5.435" height="5.785"/>
		<rect x="-2508.591" y="211.959" fill="#B7B7B7" width="5.435" height="5.785"/>
		<rect x="-2517.28" y="201.781" fill="#B7B7B7" width="5.435" height="5.785"/>
		<rect x="-2524.988" y="193.217" fill="#B7B7B7" width="5.435" height="5.785"/>
		<rect x="-2489.248" y="233.119" fill="#B7B7B7" width="5.435" height="5.785"/>
		<rect x="-2475.062" y="211.959" fill="#B7B7B7" width="5.435" height="5.785"/>
	</g>
	<g>
		<rect x="-2663.163" y="171.737" fill="#fff" width="77.892" height="84.527"/>
		<rect x="-2642.062" y="231.245" opacity="0.5" fill="#C9C9C9" width="3.42" height="7.282"/>
		<rect x="-2642.062" y="187.178" opacity="0.5" fill="#C9C9C9" width="3.42" height="7.282"/>
		<rect x="-2642.062" y="198.529" opacity="0.5" fill="#C9C9C9" width="3.42" height="7.283"/>
		<rect x="-2618.252" y="219.636" opacity="0.5" fill="#C9C9C9" width="3.421" height="7.282"/>
		<rect x="-2630.375" y="187.178" opacity="0.5" fill="#C9C9C9" width="3.421" height="7.282"/>
		<rect x="-2599.437" y="207.436" opacity="0.5" fill="#C9C9C9" width="3.421" height="7.282"/>
		<rect x="-2612.846" y="207.435" opacity="0.5" fill="#C9C9C9" width="3.42" height="7.283"/>
		<rect x="-2599.437" y="219.636" opacity="0.5" fill="#C9C9C9" width="3.42" height="7.282"/>
		<rect x="-2599.437" y="231.245" opacity="0.5" fill="#C9C9C9" width="3.42" height="7.282"/>
		<rect x="-2599.437" y="187.178" opacity="0.5" fill="#C9C9C9" width="3.421" height="7.282"/>
	</g>
	<rect x="-2615.57" y="357.245" opacity="0.5" fill="#C9C9C9" width="3.42" height="7.282"/>
	<rect x="-2615.57" y="313.178" opacity="0.5" fill="#C9C9C9" width="3.42" height="7.282"/>
	<rect x="-2615.57" y="324.529" opacity="0.5" fill="#C9C9C9" width="3.42" height="7.283"/>
	<rect x="-2591.761" y="345.636" opacity="0.5" fill="#C9C9C9" width="3.421" height="7.282"/>
	<rect x="-2603.884" y="313.178" opacity="0.5" fill="#C9C9C9" width="3.421" height="7.282"/>
	<rect x="-2572.945" y="333.436" opacity="0.5" fill="#C9C9C9" width="3.421" height="7.282"/>
	<rect x="-2586.354" y="333.435" opacity="0.5" fill="#C9C9C9" width="3.42" height="7.283"/>
	<rect x="-2572.945" y="345.636" opacity="0.5" fill="#C9C9C9" width="3.42" height="7.282"/>
	<rect x="-2572.945" y="357.245" opacity="0.5" fill="#C9C9C9" width="3.42" height="7.282"/>
	<rect x="-2572.945" y="313.178" opacity="0.5" fill="#C9C9C9" width="3.421" height="7.282"/>
	<rect x="-2389.473" y="193.665" opacity="0.5" fill="#C9C9C9" width="3.42" height="7.282"/>
	<rect x="-2389.473" y="205.016" opacity="0.5" fill="#C9C9C9" width="3.42" height="7.283"/>
	<rect x="-2377.787" y="193.665" opacity="0.5" fill="#C9C9C9" width="3.421" height="7.282"/>
	<rect x="-2346.848" y="213.923" opacity="0.5" fill="#C9C9C9" width="3.421" height="7.282"/>
	<rect x="-2360.257" y="213.922" opacity="0.5" fill="#C9C9C9" width="3.42" height="7.283"/>
	<rect x="-2346.848" y="193.665" opacity="0.5" fill="#C9C9C9" width="3.421" height="7.282"/>
	<rect x="-2330.045" y="193.665" opacity="0.5" fill="#C9C9C9" width="3.42" height="7.282"/>
	<rect x="-2330.045" y="205.016" opacity="0.5" fill="#C9C9C9" width="3.42" height="7.283"/>
	<rect x="-2318.359" y="193.665" opacity="0.5" fill="#C9C9C9" width="3.421" height="7.282"/>
	<rect x="-2287.42" y="213.923" opacity="0.5" fill="#C9C9C9" width="3.421" height="7.282"/>
	<rect x="-2300.83" y="213.922" opacity="0.5" fill="#C9C9C9" width="3.42" height="7.283"/>
	<rect x="-2287.42" y="203.665" opacity="0.5" fill="#C9C9C9" width="3.421" height="7.282"/>
	<path fill="#DCDBDB" d="M-2233.18,169.234h47.321c5.549,0,10.046,4.498,10.046,10.046l0,0c0,5.548-4.497,10.046-10.046,10.046
		h-47.321c-5.549,0-10.046-4.498-10.046-10.046l0,0C-2243.226,173.732-2238.729,169.234-2233.18,169.234z"/>
	<path fill="#DCDBDB" d="M-2250.18,197.389h47.321c5.549,0,10.046,4.498,10.046,10.046l0,0c0,5.548-4.497,10.046-10.046,10.046
		h-47.321c-5.549,0-10.046-4.498-10.046-10.046l0,0C-2260.226,201.887-2255.729,197.389-2250.18,197.389z"/>
	<rect x="-2264.871" y="129.259" fill="#DCDBDB" width="40.648" height="103.479"/>
	<g>
		<rect x="-2255.549" y="145.687" fill="#FDF9CE" width="35.346" height="5.35"/>
		<rect x="-2255.549" y="155.701" fill="#FDF9CE" width="35.346" height="5.35"/>
		<rect x="-2255.549" y="165.716" fill="#FDF9CE" width="35.346" height="5.35"/>
		<rect x="-2255.549" y="175.73" fill="#FDF9CE" width="35.346" height="5.349"/>
		<rect x="-2255.549" y="185.745" fill="#FDF9CE" width="35.346" height="5.35"/>
		<rect x="-2255.549" y="195.759" fill="#FDF9CE" width="35.346" height="5.35"/>
	</g>
	<g>
		<rect fill="#555555" width="475.076" height="477.405"/>
	</g>
	<g>
		<path fill="#A0A0A0" d="M440.634,150.196h-0.947c-4.848,0-8.777,3.931-8.777,8.779c0,4.85,3.93,8.78,8.777,8.78h0.947
			c4.848,0,8.779-3.931,8.779-8.78C449.413,154.127,445.481,150.196,440.634,150.196z"/>
		<path fill="#A0A0A0" d="M32.79,214.616h-0.947c-4.849,0-8.778,3.931-8.778,8.78c0,4.85,3.93,8.78,8.778,8.78h0.947
			c4.848,0,8.779-3.93,8.779-8.78C41.569,218.547,37.638,214.616,32.79,214.616z"/>
		<path fill="#A0A0A0" d="M422.095,176.675h-31.27c-2.377-0.582-4.113-2.308-4.113-4.331c0-2.498,2.645-4.541,5.875-4.541h9.934
			c0.057,0,0.113-0.007,0.168-0.008h13.75c4.867,0,8.814-3.946,8.814-8.815c0-4.868-3.947-8.813-8.814-8.813h-13.918h-7.133h-43.01
			c-29.006-22.855-65.611-36.494-105.406-36.494c-1.715,0-3.424,0.033-5.129,0.083H125.976c-0.378-0.048-0.76-0.083-1.152-0.083
			h-21.188c-4.899,0-8.871,3.972-8.871,8.87c0,4.899,3.972,8.872,8.871,8.872h21.188c0.156,0,0.308-0.015,0.463-0.023h22.297
			c3.231,0,5.876,2.043,5.876,4.542s-2.645,4.542-5.876,4.542h-6.161c-0.035,0-0.07,0.004-0.105,0.005h-15.6
			c-4.899,0-8.87,3.971-8.87,8.872c0,4.898,3.971,8.871,8.87,8.871h6.36c-17.157,15.668-31.1,34.796-40.724,56.282H64.972h-7.135
			h-1.041c-4.868,0-8.813,3.945-8.813,8.813c0,4.869,3.945,8.815,8.813,8.815h0.873c0.057,0.001,0.111,0.008,0.168,0.008h9.934
			c3.231,0,5.875,2.043,5.875,4.541c0,2.024-1.736,3.75-4.114,4.331H51.139c-4.867,0-8.813,3.945-8.813,8.813
			s3.946,8.815,8.813,8.815h27.288c-1.246,8.311-1.896,16.815-1.896,25.474c0,35.299,0.172,153.05,0.172,153.05
			s111.438,17.393,170.27,17.393c64.709,0,170.463-17.391,170.463-17.391s-0.02-123.629-0.02-153.052
			c0-32.962-9.367-63.732-25.57-89.812h30.25c4.869,0,8.814-3.946,8.814-8.814C430.909,180.62,426.964,176.675,422.095,176.675z"/>
	</g>
	<path fill="#B7B7B7" d="M374.442,131.741c1.834,0,3.318-1.486,3.318-3.319c0-1.833-1.484-3.318-3.318-3.318H359.05V112.85h15.393
		c1.834,0,3.318-1.486,3.318-3.319c0-1.833-1.484-3.319-3.318-3.319H359.05V90.971c3.369-1.523,5.717-4.905,5.717-8.843
		c0-5.361-4.346-9.708-9.707-9.708s-9.709,4.346-9.709,9.708c0,3.938,2.35,7.32,5.719,8.843v15.241h-15.242
		c-1.832,0-3.318,1.486-3.318,3.319c0,1.833,1.486,3.319,3.318,3.319h15.242v12.254h-15.242c-1.832,0-3.318,1.486-3.318,3.318
		c0,1.833,1.486,3.319,3.318,3.319h15.242v7.873c-0.004,56.197-17.928,94.77-17.928,94.77v104.205h43.818V234.383
		c0,0-17.312-37.259-17.91-91.89v-10.752H374.442z"/>
	<rect x="365.769" y="245.352" fill="#B7B7B7" width="40.648" height="127.916"/>
	<path fill="#A0A0A0" d="M40.14,283.084h47.321c5.548,0,10.046,4.498,10.046,10.046l0,0c0,5.548-4.498,10.046-10.046,10.046H40.14
		c-5.549,0-10.047-4.498-10.047-10.046l0,0C30.093,287.582,34.591,283.084,40.14,283.084z"/>
	<path fill="#A0A0A0" d="M382.565,250.083h47.32c5.549,0,10.047,4.498,10.047,10.046l0,0c0,5.548-4.498,10.046-10.047,10.046h-47.32
		c-5.549,0-10.047-4.498-10.047-10.046l0,0C372.519,254.581,377.017,250.083,382.565,250.083z"/>
	<polygon fill="#B7B7B7" points="196.958,411.087 242.702,411.087 242.702,215.341 142.603,215.341 142.603,303.02 195.046,303.07 	
		"/>
	<g>
		<rect x="158.568" y="221.518" fill="#FDF9CE" width="5.202" height="81.502"/>
		<rect x="149.576" y="221.518" fill="#FDF9CE" width="5.202" height="81.502"/>
		<rect x="167.562" y="221.518" fill="#FDF9CE" width="5.201" height="81.502"/>
		<rect x="176.554" y="221.518" fill="#FDF9CE" width="5.201" height="81.502"/>
		<rect x="185.546" y="221.518" fill="#FDF9CE" width="5.201" height="81.502"/>
		<polygon fill="#FDF9CE" points="199.74,323.985 194.538,321.542 194.538,221.518 199.74,221.518 		"/>
		<polygon fill="#FDF9CE" points="208.732,328.394 203.53,325.914 203.53,221.518 208.732,221.518 		"/>
		<rect x="212.522" y="221.518" fill="#FDF9CE" width="5.203" height="45.391"/>
		<rect x="221.515" y="221.518" fill="#FDF9CE" width="5.203" height="45.391"/>
		<rect x="230.507" y="221.518" fill="#FDF9CE" width="5.203" height="45.391"/>
	</g>
	<rect x="103.433" y="302.442" fill="#B7B7B7" width="91.105" height="83.633"/>
	<rect x="286.369" y="316.729" fill="#DCDBDB" width="46.591" height="79.902"/>
	<rect x="76.702" y="261.792" fill="#DCDBDB" width="58.001" height="163.538"/>
	<rect x="208.732" y="259.908" fill="#DCDBDB" width="80.224" height="144.179"/>
	<rect x="251.937" y="376.792" fill="#A0A0A0" width="24.621" height="5.324"/>
	<rect x="288.007" y="330.6" fill="#B7B7B7" width="129.721" height="69.834"/>
	<rect x="56.787" y="363.824" fill="#555555" width="380.802" height="90.733"/>
	<polygon fill="#555555" points="181.146,308.334 251.962,342.102 251.825,414.213 181.146,414.213 	"/>
	<rect x="56.812" y="329.841" fill="#555555" width="77.892" height="84.528"/>
	<rect x="372.11" y="333.935" fill="#555555" width="65.479" height="80.809"/>
	<rect x="285.189" y="352.62" fill="#555555" width="145.194" height="47.813"/>
	<rect x="299.016" y="223.954" fill="#555555" width="23.109" height="106.646"/>
	<rect x="293.404" y="222.942" fill="#555555" width="34.52" height="14.611"/>
	<g>
		<rect x="382.091" y="254.779" fill="#A0A0A0" width="35.346" height="5.35"/>
		<rect x="382.091" y="264.793" fill="#A0A0A0" width="35.346" height="5.35"/>
		<rect x="382.091" y="274.808" fill="#A0A0A0" width="35.346" height="5.35"/>
		<rect x="382.091" y="284.823" fill="#A0A0A0" width="35.346" height="5.349"/>
		<rect x="382.091" y="294.837" fill="#A0A0A0" width="35.346" height="5.35"/>
		<rect x="382.091" y="304.852" fill="#A0A0A0" width="35.346" height="5.35"/>
	</g>
	<g>
		<rect x="77.913" y="337.282" fill="#B7B7B7" width="3.42" height="7.282"/>
		<rect x="77.913" y="348.633" fill="#B7B7B7" width="3.42" height="7.283"/>
		<rect x="101.722" y="369.741" fill="#B7B7B7" width="3.422" height="7.282"/>
		<rect x="89.599" y="337.282" fill="#B7B7B7" width="3.422" height="7.282"/>
		<rect x="120.538" y="357.54" fill="#B7B7B7" width="3.421" height="7.282"/>
		<rect x="107.129" y="357.54" fill="#B7B7B7" width="3.421" height="7.283"/>
		<rect x="120.538" y="369.741" fill="#B7B7B7" width="3.42" height="7.282"/>
		<rect x="120.538" y="337.282" fill="#B7B7B7" width="3.421" height="7.282"/>
	</g>
	<g>
		<rect x="412.3" y="345.282" fill="#B7B7B7" width="3.42" height="7.282"/>
		<rect x="381.36" y="365.54" fill="#B7B7B7" width="3.421" height="7.282"/>
		<rect x="394.771" y="365.54" fill="#B7B7B7" width="3.42" height="7.283"/>
		<rect x="381.36" y="345.282" fill="#B7B7B7" width="3.421" height="7.282"/>
	</g>
	<g>
		<rect x="159.807" y="346.367" fill="#A0A0A0" width="3.42" height="7.282"/>
		<rect x="171.93" y="313.908" fill="#A0A0A0" width="3.42" height="7.282"/>
		<rect x="140.99" y="334.166" fill="#A0A0A0" width="3.421" height="7.282"/>
		<rect x="154.4" y="334.166" fill="#A0A0A0" width="3.42" height="7.283"/>
		<rect x="140.99" y="346.367" fill="#A0A0A0" width="3.421" height="7.282"/>
		<rect x="140.99" y="313.908" fill="#A0A0A0" width="3.421" height="7.282"/>
	</g>
	<rect x="206.009" y="347.283" fill="#B7B7B7" width="5.435" height="5.785"/>
	<rect x="197.319" y="337.104" fill="#B7B7B7" width="5.436" height="5.785"/>
	<rect x="189.612" y="328.541" fill="#B7B7B7" width="5.434" height="5.785"/>
	<rect x="225.353" y="368.442" fill="#B7B7B7" width="5.436" height="5.785"/>
	<rect x="239.538" y="347.283" fill="#B7B7B7" width="5.436" height="5.785"/>
	<rect x="217.378" y="267.146" fill="#A0A0A0" width="62.695" height="5.324"/>
	<rect x="217.378" y="277.114" fill="#A0A0A0" width="62.695" height="5.324"/>
	<rect x="217.378" y="287.082" fill="#A0A0A0" width="62.695" height="5.324"/>
	<rect x="217.378" y="297.05" fill="#A0A0A0" width="59.002" height="5.324"/>
	<rect x="217.378" y="307.018" fill="#A0A0A0" width="59.002" height="5.324"/>
	<rect x="217.378" y="316.985" fill="#A0A0A0" width="59.002" height="5.324"/>
	<g>
		<rect x="76.702" y="274.146" fill="#FDF9CE" width="58.001" height="5.324"/>
		<rect x="76.702" y="284.114" fill="#FDF9CE" width="58.001" height="5.324"/>
		<rect x="76.702" y="294.082" fill="#FDF9CE" width="58.001" height="5.324"/>
		<rect x="76.702" y="304.05" fill="#FDF9CE" width="58.001" height="5.324"/>
		<rect x="76.702" y="314.018" fill="#FDF9CE" width="58.001" height="5.324"/>
		<rect x="76.702" y="323.985" fill="#FDF9CE" width="58.001" height="5.324"/>
	</g>
	<polygon fill="#A0A0A0" points="276.38,332.277 231.095,332.277 220.056,326.953 276.38,326.953 	"/>
	<polygon fill="#A0A0A0" points="276.558,342.245 251.937,342.245 240.773,336.921 276.558,336.921 	"/>
	<rect x="251.937" y="346.889" fill="#A0A0A0" width="24.621" height="5.324"/>
	<rect x="251.937" y="356.856" fill="#A0A0A0" width="24.621" height="5.324"/>
	<path fill="#fff" d="M127.446,224.485c0.818,0.229,0.818,0.604-0.002,0.833l-2.146,2.148c-0.23,0.819-0.604,0.819-0.834,0
		l-2.148-2.148c-0.82-0.229-0.82-0.604-0.002-0.833l2.15-2.15c0.229-0.818,0.604-0.818,0.834,0L127.446,224.485z"/>
	<path fill="#fff" d="M97.123,187.057c0.435,0.122,0.435,0.321,0,0.443l-1.145,1.144c-0.121,0.436-0.32,0.436-0.442,0
		l-1.145-1.144c-0.436-0.122-0.436-0.321,0-0.443l1.145-1.144c0.122-0.436,0.321-0.436,0.442,0L97.123,187.057z"/>
	<path fill="#fff" d="M120.212,143.374c0.436,0.122,0.436,0.321,0,0.443l-1.145,1.144c-0.121,0.436-0.32,0.436-0.441,0
		l-1.145-1.144c-0.436-0.122-0.436-0.321,0-0.443l1.145-1.144c0.121-0.436,0.32-0.436,0.441,0L120.212,143.374z"/>
	<path fill="#fff" d="M98.31,238.756c1.354,0.379,1.354,0.999,0,1.377l-3.555,3.555c-0.381,1.354-1,1.354-1.379,0l-3.555-3.555
		c-1.355-0.379-1.355-0.999-0.002-1.377l3.557-3.556c0.379-1.355,0.998-1.355,1.379,0L98.31,238.756z"/>
	<path fill="#B7B7B7" d="M229.688,217.944c0.816,0.229,0.816,0.604-0.001,0.833l-2.149,2.148c-0.229,0.818-0.604,0.818-0.832,0
		l-2.148-2.148c-0.82-0.229-0.82-0.604-0.002-0.833l2.15-2.15c0.229-0.819,0.604-0.819,0.832,0L229.688,217.944z"/>
	<g>
		<path fill="#fff" d="M234.629,161.386c0.741-0.417,1.005-0.152,0.588,0.589l0.001,3.038c0.416,0.742,0.152,1.006-0.59,0.589
			h-3.039c-0.74,0.418-1.006,0.153-0.589-0.588v-3.04c-0.416-0.741-0.151-1.006,0.589-0.59L234.629,161.386z"/>
		<path fill="#fff" d="M261.546,170.118c0.818,0.229,0.818,0.604,0,0.832l-2.148,2.149c-0.229,0.818-0.604,0.818-0.834,0
			l-2.148-2.149c-0.818-0.229-0.818-0.604,0-0.832l2.148-2.15c0.23-0.818,0.605-0.818,0.834,0L261.546,170.118z"/>
		<path fill="#fff" d="M316.755,141.679c0.818,0.229,0.818,0.604,0,0.832l-2.15,2.149c-0.229,0.818-0.602,0.818-0.832,0
			l-2.148-2.149c-0.818-0.229-0.818-0.604-0.002-0.832l2.15-2.15c0.23-0.818,0.604-0.818,0.832,0L316.755,141.679z"/>
		<path fill="#fff" d="M178.077,139.113c0.818,0.229,0.818,0.604,0,0.832l-2.149,2.149c-0.229,0.818-0.603,0.818-0.833,0
			l-2.148-2.149c-0.818-0.229-0.818-0.603,0-0.832l2.148-2.15c0.23-0.818,0.604-0.818,0.833,0L178.077,139.113z"/>
		<path fill="#fff" d="M281.374,184.18c0.434,0.122,0.434,0.321,0,0.443l-1.145,1.143c-0.121,0.436-0.32,0.436-0.443,0
			l-1.143-1.143c-0.436-0.123-0.436-0.322-0.002-0.443l1.145-1.145c0.123-0.436,0.322-0.436,0.443,0L281.374,184.18z"/>
		<path fill="#fff" d="M244.289,206.45c0.435,0.122,0.435,0.321,0,0.443l-1.144,1.144c-0.122,0.436-0.321,0.436-0.443,0
			l-1.144-1.144c-0.437-0.122-0.437-0.321-0.001-0.443l1.145-1.144c0.122-0.436,0.321-0.436,0.443,0L244.289,206.45z"/>
		<path fill="#fff" d="M167.147,162.766c0.436,0.122,0.436,0.321,0,0.443l-1.144,1.144c-0.122,0.436-0.321,0.436-0.442,0
			l-1.145-1.144c-0.436-0.122-0.436-0.321,0-0.443l1.145-1.144c0.121-0.436,0.32-0.436,0.442,0L167.147,162.766z"/>
		<path fill="#fff" d="M127.964,191.565c0.435,0.122,0.435,0.321,0,0.443l-1.145,1.143c-0.121,0.436-0.32,0.436-0.443,0
			l-1.143-1.143c-0.437-0.123-0.437-0.322-0.002-0.443l1.145-1.145c0.123-0.436,0.322-0.436,0.443,0L127.964,191.565z"/>
		<path fill="#fff" d="M318.733,190.163c0.436,0.122,0.436,0.321,0,0.443l-1.143,1.143c-0.123,0.436-0.322,0.436-0.443,0
			l-1.145-1.143c-0.436-0.123-0.436-0.322,0-0.443l1.145-1.145c0.121-0.436,0.32-0.436,0.443,0L318.733,190.163z"/>
		<path fill="#fff" d="M277.462,153.011c0.436,0.122,0.436,0.321,0,0.443l-1.145,1.143c-0.121,0.436-0.32,0.436-0.441,0
			l-1.145-1.143c-0.436-0.123-0.436-0.322-0.002-0.443l1.146-1.145c0.121-0.436,0.32-0.436,0.441,0L277.462,153.011z"/>
		<path fill="#fff" d="M382.313,167.949c0.436,0.122,0.436,0.321,0,0.443l-1.143,1.143c-0.123,0.436-0.322,0.436-0.443,0
			l-1.145-1.143c-0.436-0.122-0.436-0.322,0-0.443l1.145-1.145c0.121-0.436,0.32-0.436,0.443,0L382.313,167.949z"/>
		<path fill="#fff" d="M277.462,245.319c0.436,0.122,0.436,0.321,0,0.443l-1.145,1.143c-0.121,0.436-0.32,0.436-0.441,0
			l-1.145-1.143c-0.436-0.123-0.436-0.322-0.002-0.443l1.146-1.145c0.121-0.436,0.32-0.436,0.441,0L277.462,245.319z"/>
		<path fill="#fff" d="M302.13,180.934c0.816,0.229,0.816,0.604-0.002,0.833l-2.148,2.149c-0.23,0.818-0.604,0.818-0.832,0
			l-2.148-2.149c-0.82-0.229-0.82-0.604-0.002-0.833l2.15-2.15c0.229-0.818,0.602-0.818,0.832,0L302.13,180.934z"/>
		<path fill="#fff" d="M287.757,209.28c0.816,0.229,0.816,0.604-0.002,0.833l-2.148,2.149c-0.23,0.818-0.604,0.818-0.832,0
			l-2.15-2.149c-0.818-0.229-0.818-0.603,0-0.833l2.15-2.149c0.229-0.819,0.602-0.819,0.832,0L287.757,209.28z"/>
		<path fill="#fff" d="M174.114,196.331c0.817,0.229,0.817,0.604-0.001,0.833l-2.149,2.149c-0.229,0.818-0.604,0.818-0.832,0
			l-2.148-2.149c-0.819-0.229-0.819-0.604-0.002-0.833l2.15-2.149c0.229-0.819,0.604-0.819,0.832,0L174.114,196.331z"/>
		<path fill="#fff" d="M260.093,139.22c1.225-0.689,1.662-0.251,0.973,0.974v5.028c0.689,1.226,0.252,1.665-0.973,0.974h-5.029
			c-1.227,0.69-1.664,0.252-0.975-0.972v-5.03c-0.689-1.225-0.252-1.664,0.975-0.974L260.093,139.22z"/>
		<path fill="#fff" d="M386.604,235.849c0.818,0.229,0.818,0.604,0,0.833l-2.148,2.149c-0.23,0.818-0.605,0.818-0.834,0
			l-2.148-2.149c-0.818-0.229-0.818-0.604-0.002-0.833l2.15-2.15c0.229-0.819,0.604-0.819,0.834,0L386.604,235.849z"/>
		<path fill="#fff" d="M374.771,212.46c0.817,0.229,0.817,0.604-0.001,0.833l-2.148,2.149c-0.229,0.818-0.604,0.818-0.833,0
			l-2.148-2.149c-0.819-0.229-0.819-0.604-0.002-0.833l2.15-2.15c0.229-0.819,0.604-0.819,0.833,0L374.771,212.46z"/>
		<path fill="#fff" d="M256.964,222.414c0.818,0.229,0.818,0.604,0,0.833l-2.148,2.149c-0.23,0.818-0.605,0.818-0.834,0
			l-2.148-2.149c-0.818-0.229-0.818-0.604-0.002-0.833l2.15-2.149c0.229-0.819,0.604-0.819,0.834,0L256.964,222.414z"/>
		<path fill="#fff" d="M331.896,202.921c0.816,0.229,0.816,0.604-0.002,0.833l-2.148,2.149c-0.229,0.818-0.604,0.818-0.832,0
			l-2.148-2.149c-0.82-0.229-0.82-0.604-0.002-0.833l2.15-2.15c0.229-0.818,0.604-0.818,0.832,0L331.896,202.921z"/>
		<path fill="#fff" d="M336.524,167.117c0.816,0.229,0.816,0.604-0.002,0.832l-2.148,2.149c-0.229,0.818-0.604,0.818-0.832,0
			l-2.148-2.149c-0.82-0.229-0.82-0.603-0.002-0.832l2.15-2.15c0.229-0.819,0.604-0.819,0.832,0L336.524,167.117z"/>
		<path fill="#fff" d="M149.521,177.754c0.816,0.229,0.816,0.604-0.002,0.833l-2.148,2.149c-0.229,0.818-0.604,0.818-0.832,0
			l-2.149-2.149c-0.819-0.229-0.819-0.604-0.001-0.833l2.15-2.15c0.229-0.818,0.603-0.818,0.832,0L149.521,177.754z"/>
		<path fill="#fff" d="M229.11,186.94c0.816,0.229,0.816,0.604-0.001,0.833l-2.149,2.149c-0.229,0.818-0.604,0.818-0.832,0
			l-2.148-2.149c-0.82-0.229-0.82-0.604-0.002-0.833l2.15-2.149c0.229-0.819,0.604-0.819,0.832,0L229.11,186.94z"/>
	</g>
	<rect x="203.53" y="201.862" fill="#B7B7B7" width="32.18" height="13.479"/>
	<path fill="none" d="M328.274,93.625c8.822,2.783,18.881,16.58,7.537,22.738c-11.344,6.159-17.553,10.991-15.197,26.905"/>
	<path fill="#A0A0A0" d="M448.94,226.858"/>
	<path fill="#D3D3D3" d="M-2684.114,150.292c0.739,0,1.339-0.6,1.339-1.339c0-0.739-0.6-1.339-1.339-1.339h-6.211v-4.945h6.211
		c0.739,0,1.339-0.6,1.339-1.339s-0.6-1.339-1.339-1.339h-6.211v-6.15c1.359-0.614,2.307-1.979,2.307-3.568
		c0-2.163-1.754-3.917-3.917-3.917c-2.164,0-3.917,1.754-3.917,3.917c0,1.589,0.948,2.954,2.307,3.568v6.15h-6.15
		c-0.74,0-1.339,0.599-1.339,1.339s0.599,1.339,1.339,1.339h6.15v4.945h-6.15c-0.74,0-1.339,0.6-1.339,1.339
		c0,0.74,0.599,1.339,1.339,1.339h6.15v3.177c-0.001,22.677-7.234,38.242-7.234,38.242v42.049h17.682V191.71
		c0,0-6.986-15.035-7.227-37.08v-4.339H-2684.114z"/>
	<g>
		<g>
			<path fill="#D1D2D1" d="M186.455,156.8c-3.206-10.144-1.57-20.232,3.505-25.949c0.998-1.124-0.348-1.97-1.613-1.632
				c-13.054,4.589-20.193,18.75-15.993,32.039c4.194,13.268,18.136,20.75,31.438,17.046c2.062-0.522,1.548-1.971-0.091-2.419
				C196.458,173.906,189.584,166.7,186.455,156.8z"/>
		</g>
	</g>
</g>
</svg>
